<mxfile host="65bd71144e">
    <diagram name="Page-1" id="cZ-DaemptlBfaPjxXRJj">
        <mxGraphModel dx="1242" dy="616" grid="1" gridSize="10" guides="1" tooltips="1" connect="1" arrows="1" fold="1" page="1" pageScale="1" pageWidth="827" pageHeight="1169" math="0" shadow="0">
            <root>
                <mxCell id="0"/>
                <mxCell id="1" parent="0"/>
                <mxCell id="qsmpyEzLBEVBjYXQlAnU-1" value="Layout" style="rounded=0;whiteSpace=wrap;html=1;" parent="1" vertex="1">
                    <mxGeometry x="294" width="120" height="20" as="geometry"/>
                </mxCell>
                <mxCell id="170" style="edgeStyle=none;html=1;entryX=0.5;entryY=1;entryDx=0;entryDy=0;startArrow=classic;startFill=1;endArrow=none;endFill=0;" parent="1" source="qsmpyEzLBEVBjYXQlAnU-2" target="qsmpyEzLBEVBjYXQlAnU-1" edge="1">
                    <mxGeometry relative="1" as="geometry"/>
                </mxCell>
                <mxCell id="qsmpyEzLBEVBjYXQlAnU-2" value="NavBar" style="whiteSpace=wrap;html=1;" parent="1" vertex="1">
                    <mxGeometry x="175" y="40" width="100" height="20" as="geometry"/>
                </mxCell>
                <mxCell id="qsmpyEzLBEVBjYXQlAnU-6" value="HomePage" style="whiteSpace=wrap;html=1;strokeColor=#08F000;" parent="1" vertex="1">
                    <mxGeometry x="527.5" y="120" width="80" height="20" as="geometry"/>
                </mxCell>
                <mxCell id="qsmpyEzLBEVBjYXQlAnU-7" value="SearchPage" style="whiteSpace=wrap;html=1;strokeColor=#08F000;" parent="1" vertex="1">
                    <mxGeometry x="227.5" y="120" width="80" height="20" as="geometry"/>
                </mxCell>
                <mxCell id="qsmpyEzLBEVBjYXQlAnU-8" value="SignUpPage" style="whiteSpace=wrap;html=1;strokeColor=#08F000;" parent="1" vertex="1">
                    <mxGeometry x="165" y="320" width="80" height="20" as="geometry"/>
                </mxCell>
                <mxCell id="169" style="edgeStyle=none;html=1;entryX=0.5;entryY=1;entryDx=0;entryDy=0;startArrow=classic;startFill=1;endArrow=none;endFill=0;" parent="1" source="qsmpyEzLBEVBjYXQlAnU-9" target="qsmpyEzLBEVBjYXQlAnU-1" edge="1">
                    <mxGeometry relative="1" as="geometry"/>
                </mxCell>
                <mxCell id="qsmpyEzLBEVBjYXQlAnU-9" value="Pages" style="whiteSpace=wrap;html=1;dashed=1;dashPattern=8 8;strokeColor=#00F050;" parent="1" vertex="1">
                    <mxGeometry x="407.5" y="40" width="120" height="20" as="geometry"/>
                </mxCell>
                <mxCell id="179" style="edgeStyle=none;html=1;entryX=0.5;entryY=1;entryDx=0;entryDy=0;" parent="1" source="qsmpyEzLBEVBjYXQlAnU-14" target="qsmpyEzLBEVBjYXQlAnU-6" edge="1">
                    <mxGeometry relative="1" as="geometry"/>
                </mxCell>
                <mxCell id="qsmpyEzLBEVBjYXQlAnU-14" value="SearchForm" style="whiteSpace=wrap;html=1;" parent="1" vertex="1">
                    <mxGeometry x="527.5" y="160" width="80" height="20" as="geometry"/>
                </mxCell>
                <mxCell id="3" style="edgeStyle=none;html=1;exitX=0.5;exitY=0;exitDx=0;exitDy=0;entryX=0.5;entryY=1;entryDx=0;entryDy=0;endArrow=none;endFill=0;startArrow=classic;startFill=1;" parent="1" source="2" target="qsmpyEzLBEVBjYXQlAnU-2" edge="1">
                    <mxGeometry relative="1" as="geometry"/>
                </mxCell>
                <mxCell id="2" value="SearchForm" style="whiteSpace=wrap;html=1;" parent="1" vertex="1">
                    <mxGeometry x="85" y="80" width="80" height="20" as="geometry"/>
                </mxCell>
                <mxCell id="8" style="edgeStyle=none;html=1;entryX=0.5;entryY=1;entryDx=0;entryDy=0;startArrow=classic;startFill=1;endArrow=none;endFill=0;" parent="1" source="4" target="qsmpyEzLBEVBjYXQlAnU-7" edge="1">
                    <mxGeometry relative="1" as="geometry"/>
                </mxCell>
                <mxCell id="4" value="MediaGrid" style="whiteSpace=wrap;html=1;" parent="1" vertex="1">
                    <mxGeometry x="45" y="160" width="80" height="20" as="geometry"/>
                </mxCell>
                <mxCell id="9" style="edgeStyle=none;html=1;startArrow=classic;startFill=1;endArrow=none;endFill=0;entryX=0.5;entryY=1;entryDx=0;entryDy=0;" parent="1" source="5" target="qsmpyEzLBEVBjYXQlAnU-7" edge="1">
                    <mxGeometry relative="1" as="geometry">
                        <mxPoint x="355" y="190" as="targetPoint"/>
                    </mxGeometry>
                </mxCell>
                <mxCell id="5" value="PersonGrid" style="whiteSpace=wrap;html=1;" parent="1" vertex="1">
                    <mxGeometry x="185" y="160" width="80" height="20" as="geometry"/>
                </mxCell>
                <mxCell id="10" style="edgeStyle=none;html=1;entryX=0.5;entryY=1;entryDx=0;entryDy=0;startArrow=classic;startFill=1;endArrow=none;endFill=0;" parent="1" source="6" target="qsmpyEzLBEVBjYXQlAnU-7" edge="1">
                    <mxGeometry relative="1" as="geometry"/>
                </mxCell>
                <mxCell id="6" value="Pagination" style="whiteSpace=wrap;html=1;" parent="1" vertex="1">
                    <mxGeometry x="275" y="160" width="80" height="20" as="geometry"/>
                </mxCell>
                <mxCell id="11" style="edgeStyle=none;html=1;entryX=0.5;entryY=1;entryDx=0;entryDy=0;startArrow=classic;startFill=1;endArrow=none;endFill=0;" parent="1" source="7" target="qsmpyEzLBEVBjYXQlAnU-7" edge="1">
                    <mxGeometry relative="1" as="geometry"/>
                </mxCell>
                <mxCell id="7" value="AdvancedSearchForm" style="whiteSpace=wrap;html=1;" parent="1" vertex="1">
                    <mxGeometry x="370" y="160" width="140" height="20" as="geometry"/>
                </mxCell>
                <mxCell id="15" style="edgeStyle=none;html=1;entryX=0.5;entryY=1;entryDx=0;entryDy=0;startArrow=classic;startFill=1;endArrow=none;endFill=0;" parent="1" source="12" target="4" edge="1">
                    <mxGeometry relative="1" as="geometry"/>
                </mxCell>
                <mxCell id="12" value="MediaCard" style="whiteSpace=wrap;html=1;" parent="1" vertex="1">
                    <mxGeometry x="45" y="200" width="80" height="20" as="geometry"/>
                </mxCell>
                <mxCell id="17" style="edgeStyle=none;html=1;startArrow=classic;startFill=1;endArrow=none;endFill=0;" parent="1" source="16" target="5" edge="1">
                    <mxGeometry relative="1" as="geometry"/>
                </mxCell>
                <mxCell id="16" value="PersonCard" style="whiteSpace=wrap;html=1;" parent="1" vertex="1">
                    <mxGeometry x="185" y="200" width="80" height="20" as="geometry"/>
                </mxCell>
                <mxCell id="21" style="edgeStyle=none;html=1;entryX=0.5;entryY=1;entryDx=0;entryDy=0;startArrow=classic;startFill=1;endArrow=none;endFill=0;" parent="1" source="18" target="12" edge="1">
                    <mxGeometry relative="1" as="geometry"/>
                </mxCell>
                <mxCell id="18" value="MediaCardBadge" style="whiteSpace=wrap;html=1;" parent="1" vertex="1">
                    <mxGeometry x="62.5" y="270" width="110" height="20" as="geometry"/>
                </mxCell>
                <mxCell id="20" style="edgeStyle=none;html=1;entryX=0.5;entryY=1;entryDx=0;entryDy=0;startArrow=classic;startFill=1;endArrow=none;endFill=0;" parent="1" source="19" target="12" edge="1">
                    <mxGeometry relative="1" as="geometry"/>
                </mxCell>
                <mxCell id="19" value="DefaultImage" style="whiteSpace=wrap;html=1;" parent="1" vertex="1">
                    <mxGeometry x="10" y="240" width="80" height="20" as="geometry"/>
                </mxCell>
                <mxCell id="23" style="edgeStyle=none;html=1;entryX=0.5;entryY=1;entryDx=0;entryDy=0;startArrow=classic;startFill=1;endArrow=none;endFill=0;" parent="1" source="22" target="16" edge="1">
                    <mxGeometry relative="1" as="geometry"/>
                </mxCell>
                <mxCell id="22" value="DefaultImage" style="whiteSpace=wrap;html=1;" parent="1" vertex="1">
                    <mxGeometry x="185" y="240" width="80" height="20" as="geometry"/>
                </mxCell>
                <mxCell id="171" style="edgeStyle=none;html=1;entryX=0.5;entryY=1;entryDx=0;entryDy=0;startArrow=classic;startFill=1;endArrow=none;endFill=0;" parent="1" source="24" target="qsmpyEzLBEVBjYXQlAnU-2" edge="1">
                    <mxGeometry relative="1" as="geometry"/>
                </mxCell>
                <mxCell id="24" value="LoginForm" style="whiteSpace=wrap;html=1;" parent="1" vertex="1">
                    <mxGeometry x="185" y="80" width="80" height="20" as="geometry"/>
                </mxCell>
                <mxCell id="26" style="edgeStyle=none;html=1;entryX=0.5;entryY=1;entryDx=0;entryDy=0;startArrow=classic;startFill=1;endArrow=none;endFill=0;" parent="1" source="25" target="qsmpyEzLBEVBjYXQlAnU-2" edge="1">
                    <mxGeometry relative="1" as="geometry"/>
                </mxCell>
                <mxCell id="25" value="ToastNotification" style="whiteSpace=wrap;html=1;" parent="1" vertex="1">
                    <mxGeometry x="275" y="80" width="120" height="20" as="geometry"/>
                </mxCell>
                <mxCell id="30" style="edgeStyle=none;html=1;entryX=0.5;entryY=1;entryDx=0;entryDy=0;startArrow=classic;startFill=1;endArrow=none;endFill=0;" parent="1" source="29" target="7" edge="1">
                    <mxGeometry relative="1" as="geometry"/>
                </mxCell>
                <mxCell id="29" value="SearchForm" style="whiteSpace=wrap;html=1;" parent="1" vertex="1">
                    <mxGeometry x="400" y="200" width="80" height="20" as="geometry"/>
                </mxCell>
                <mxCell id="31" value="MediaDetailPage" style="whiteSpace=wrap;html=1;strokeColor=#08F000;" parent="1" vertex="1">
                    <mxGeometry x="370" y="320" width="110" height="20" as="geometry"/>
                </mxCell>
                <mxCell id="42" style="edgeStyle=none;html=1;entryX=0.5;entryY=1;entryDx=0;entryDy=0;startArrow=classic;startFill=1;endArrow=none;endFill=0;" parent="1" source="32" target="31" edge="1">
                    <mxGeometry relative="1" as="geometry"/>
                </mxCell>
                <mxCell id="32" value="MediaInfromation" style="whiteSpace=wrap;html=1;" parent="1" vertex="1">
                    <mxGeometry x="405.5" y="420" width="115" height="20" as="geometry"/>
                </mxCell>
                <mxCell id="43" style="edgeStyle=none;html=1;entryX=0.5;entryY=1;entryDx=0;entryDy=0;startArrow=classic;startFill=1;endArrow=none;endFill=0;" parent="1" source="33" target="31" edge="1">
                    <mxGeometry relative="1" as="geometry"/>
                </mxCell>
                <mxCell id="78" style="edgeStyle=none;html=1;startArrow=classic;startFill=1;endArrow=none;endFill=0;" parent="1" source="33" target="77" edge="1">
                    <mxGeometry relative="1" as="geometry"/>
                </mxCell>
                <mxCell id="33" value="MediaActions" style="whiteSpace=wrap;html=1;" parent="1" vertex="1">
                    <mxGeometry x="551.25" y="380" width="105" height="20" as="geometry"/>
                </mxCell>
                <mxCell id="40" style="edgeStyle=none;html=1;entryX=0.5;entryY=1;entryDx=0;entryDy=0;startArrow=classic;startFill=1;endArrow=none;endFill=0;" parent="1" source="34" target="31" edge="1">
                    <mxGeometry relative="1" as="geometry"/>
                </mxCell>
                <mxCell id="34" value="MediaBadges" style="whiteSpace=wrap;html=1;" parent="1" vertex="1">
                    <mxGeometry x="291.25" y="380" width="105" height="20" as="geometry"/>
                </mxCell>
                <mxCell id="39" style="edgeStyle=none;html=1;entryX=0.5;entryY=1;entryDx=0;entryDy=0;startArrow=classic;startFill=1;endArrow=none;endFill=0;" parent="1" source="35" target="31" edge="1">
                    <mxGeometry relative="1" as="geometry"/>
                </mxCell>
                <mxCell id="35" value="MediaCarousel" style="whiteSpace=wrap;html=1;" parent="1" vertex="1">
                    <mxGeometry x="53.75" y="380" width="105" height="20" as="geometry"/>
                </mxCell>
                <mxCell id="38" style="edgeStyle=none;html=1;entryX=0.5;entryY=1;entryDx=0;entryDy=0;startArrow=classic;startFill=1;endArrow=none;endFill=0;" parent="1" source="36" target="31" edge="1">
                    <mxGeometry relative="1" as="geometry"/>
                </mxCell>
                <mxCell id="36" value="InfoRow" style="whiteSpace=wrap;html=1;" parent="1" vertex="1">
                    <mxGeometry x="171.25" y="380" width="105" height="20" as="geometry"/>
                </mxCell>
                <mxCell id="44" style="edgeStyle=none;html=1;entryX=0.5;entryY=1;entryDx=0;entryDy=0;startArrow=classic;startFill=1;endArrow=none;endFill=0;" parent="1" source="37" target="31" edge="1">
                    <mxGeometry relative="1" as="geometry"/>
                </mxCell>
                <mxCell id="37" value="PersonCarousel" style="whiteSpace=wrap;html=1;" parent="1" vertex="1">
                    <mxGeometry x="691.25" y="380" width="105" height="20" as="geometry"/>
                </mxCell>
                <mxCell id="46" style="edgeStyle=none;html=1;entryX=0.5;entryY=1;entryDx=0;entryDy=0;startArrow=classic;startFill=1;endArrow=none;endFill=0;" parent="1" source="45" target="35" edge="1">
                    <mxGeometry relative="1" as="geometry"/>
                </mxCell>
                <mxCell id="45" value="GeneralCarousel" style="whiteSpace=wrap;html=1;" parent="1" vertex="1">
                    <mxGeometry x="53.75" y="420" width="105" height="20" as="geometry"/>
                </mxCell>
                <mxCell id="61" style="edgeStyle=none;html=1;entryX=0.5;entryY=1;entryDx=0;entryDy=0;startArrow=classic;startFill=1;endArrow=none;endFill=0;" parent="1" source="56" target="45" edge="1">
                    <mxGeometry relative="1" as="geometry"/>
                </mxCell>
                <mxCell id="56" value="MediaCard" style="whiteSpace=wrap;html=1;" parent="1" vertex="1">
                    <mxGeometry x="65" y="460" width="80" height="20" as="geometry"/>
                </mxCell>
                <mxCell id="57" style="edgeStyle=none;html=1;entryX=0.5;entryY=1;entryDx=0;entryDy=0;startArrow=classic;startFill=1;endArrow=none;endFill=0;" parent="1" source="58" target="56" edge="1">
                    <mxGeometry relative="1" as="geometry"/>
                </mxCell>
                <mxCell id="58" value="MediaCardBadge" style="whiteSpace=wrap;html=1;" parent="1" vertex="1">
                    <mxGeometry x="80" y="530" width="110" height="20" as="geometry"/>
                </mxCell>
                <mxCell id="59" style="edgeStyle=none;html=1;entryX=0.5;entryY=1;entryDx=0;entryDy=0;startArrow=classic;startFill=1;endArrow=none;endFill=0;" parent="1" source="60" target="56" edge="1">
                    <mxGeometry relative="1" as="geometry"/>
                </mxCell>
                <mxCell id="60" value="DefaultImage" style="whiteSpace=wrap;html=1;" parent="1" vertex="1">
                    <mxGeometry x="20" y="500" width="80" height="20" as="geometry"/>
                </mxCell>
                <mxCell id="67" style="edgeStyle=none;html=1;entryX=0.5;entryY=1;entryDx=0;entryDy=0;startArrow=classic;startFill=1;endArrow=none;endFill=0;" parent="1" source="62" target="32" edge="1">
                    <mxGeometry relative="1" as="geometry"/>
                </mxCell>
                <mxCell id="62" value="PlaceholderText" style="whiteSpace=wrap;html=1;" parent="1" vertex="1">
                    <mxGeometry x="230" y="460" width="115" height="20" as="geometry"/>
                </mxCell>
                <mxCell id="68" style="edgeStyle=none;html=1;entryX=0.5;entryY=1;entryDx=0;entryDy=0;startArrow=classic;startFill=1;endArrow=none;endFill=0;" parent="1" source="63" target="32" edge="1">
                    <mxGeometry relative="1" as="geometry"/>
                </mxCell>
                <mxCell id="63" value="DefaultImage" style="whiteSpace=wrap;html=1;" parent="1" vertex="1">
                    <mxGeometry x="310" y="500" width="80" height="20" as="geometry"/>
                </mxCell>
                <mxCell id="70" style="edgeStyle=none;html=1;entryX=0.5;entryY=1;entryDx=0;entryDy=0;startArrow=classic;startFill=1;endArrow=none;endFill=0;" parent="1" source="64" target="32" edge="1">
                    <mxGeometry relative="1" as="geometry"/>
                </mxCell>
                <mxCell id="64" value="Rating" style="whiteSpace=wrap;html=1;" parent="1" vertex="1">
                    <mxGeometry x="531" y="500" width="80" height="20" as="geometry"/>
                </mxCell>
                <mxCell id="69" style="edgeStyle=none;html=1;entryX=0.5;entryY=1;entryDx=0;entryDy=0;startArrow=classic;startFill=1;endArrow=none;endFill=0;" parent="1" source="65" target="32" edge="1">
                    <mxGeometry relative="1" as="geometry"/>
                </mxCell>
                <mxCell id="65" value="InfoRowWithSeparator" style="whiteSpace=wrap;html=1;" parent="1" vertex="1">
                    <mxGeometry x="395" y="530" width="136" height="20" as="geometry"/>
                </mxCell>
                <mxCell id="72" style="edgeStyle=none;html=1;entryX=0.5;entryY=1;entryDx=0;entryDy=0;startArrow=classic;startFill=1;endArrow=none;endFill=0;" parent="1" source="71" target="37" edge="1">
                    <mxGeometry relative="1" as="geometry"/>
                </mxCell>
                <mxCell id="71" value="GeneralCarousel" style="whiteSpace=wrap;html=1;" parent="1" vertex="1">
                    <mxGeometry x="692.5" y="422.5" width="105" height="20" as="geometry"/>
                </mxCell>
                <mxCell id="76" style="edgeStyle=none;html=1;entryX=0.5;entryY=1;entryDx=0;entryDy=0;startArrow=classic;startFill=1;endArrow=none;endFill=0;" parent="1" source="73" target="71" edge="1">
                    <mxGeometry relative="1" as="geometry"/>
                </mxCell>
                <mxCell id="73" value="PersonCard" style="whiteSpace=wrap;html=1;" parent="1" vertex="1">
                    <mxGeometry x="703.75" y="460" width="80" height="20" as="geometry"/>
                </mxCell>
                <mxCell id="74" style="edgeStyle=none;html=1;entryX=0.5;entryY=1;entryDx=0;entryDy=0;startArrow=classic;startFill=1;endArrow=none;endFill=0;" parent="1" source="75" target="73" edge="1">
                    <mxGeometry relative="1" as="geometry"/>
                </mxCell>
                <mxCell id="75" value="DefaultImage" style="whiteSpace=wrap;html=1;" parent="1" vertex="1">
                    <mxGeometry x="703.75" y="500" width="80" height="20" as="geometry"/>
                </mxCell>
                <mxCell id="77" value="ActionDropdown" style="whiteSpace=wrap;html=1;" parent="1" vertex="1">
                    <mxGeometry x="551.25" y="420" width="105" height="20" as="geometry"/>
                </mxCell>
                <mxCell id="99" value="NotFoundPage" style="whiteSpace=wrap;html=1;strokeColor=#08F000;" parent="1" vertex="1">
                    <mxGeometry x="612.5" y="320" width="130" height="20" as="geometry"/>
                </mxCell>
                <mxCell id="100" value="PersonDetailPage" style="whiteSpace=wrap;html=1;strokeColor=#08F000;" parent="1" vertex="1">
                    <mxGeometry x="195" y="580" width="130" height="20" as="geometry"/>
                </mxCell>
                <mxCell id="115" style="edgeStyle=none;html=1;entryX=0.5;entryY=1;entryDx=0;entryDy=0;startArrow=classic;startFill=1;endArrow=none;endFill=0;" parent="1" source="101" target="100" edge="1">
                    <mxGeometry relative="1" as="geometry"/>
                </mxCell>
                <mxCell id="101" value="PersonCarousel" style="whiteSpace=wrap;html=1;" parent="1" vertex="1">
                    <mxGeometry x="183.75" y="620" width="105" height="20" as="geometry"/>
                </mxCell>
                <mxCell id="102" style="edgeStyle=none;html=1;entryX=0.5;entryY=1;entryDx=0;entryDy=0;startArrow=classic;startFill=1;endArrow=none;endFill=0;" parent="1" source="103" target="101" edge="1">
                    <mxGeometry relative="1" as="geometry"/>
                </mxCell>
                <mxCell id="103" value="GeneralCarousel" style="whiteSpace=wrap;html=1;" parent="1" vertex="1">
                    <mxGeometry x="183.75" y="660" width="105" height="20" as="geometry"/>
                </mxCell>
                <mxCell id="104" style="edgeStyle=none;html=1;entryX=0.5;entryY=1;entryDx=0;entryDy=0;startArrow=classic;startFill=1;endArrow=none;endFill=0;" parent="1" source="105" target="103" edge="1">
                    <mxGeometry relative="1" as="geometry"/>
                </mxCell>
                <mxCell id="105" value="PersonCard" style="whiteSpace=wrap;html=1;" parent="1" vertex="1">
                    <mxGeometry x="196.25" y="700" width="80" height="20" as="geometry"/>
                </mxCell>
                <mxCell id="106" style="edgeStyle=none;html=1;entryX=0.5;entryY=1;entryDx=0;entryDy=0;startArrow=classic;startFill=1;endArrow=none;endFill=0;" parent="1" source="107" target="105" edge="1">
                    <mxGeometry relative="1" as="geometry"/>
                </mxCell>
                <mxCell id="107" value="DefaultImage" style="whiteSpace=wrap;html=1;" parent="1" vertex="1">
                    <mxGeometry x="195" y="740" width="80" height="20" as="geometry"/>
                </mxCell>
                <mxCell id="116" style="edgeStyle=none;html=1;entryX=0.5;entryY=1;entryDx=0;entryDy=0;startArrow=classic;startFill=1;endArrow=none;endFill=0;" parent="1" source="108" target="100" edge="1">
                    <mxGeometry relative="1" as="geometry">
                        <mxPoint x="355" y="680" as="targetPoint"/>
                    </mxGeometry>
                </mxCell>
                <mxCell id="108" value="PersonInformation" style="whiteSpace=wrap;html=1;" parent="1" vertex="1">
                    <mxGeometry x="405" y="620" width="105" height="20" as="geometry"/>
                </mxCell>
                <mxCell id="112" style="edgeStyle=none;html=1;entryX=0.5;entryY=1;entryDx=0;entryDy=0;startArrow=classic;startFill=1;endArrow=none;endFill=0;" parent="1" source="109" target="108" edge="1">
                    <mxGeometry relative="1" as="geometry"/>
                </mxCell>
                <mxCell id="109" value="PlaceholderText" style="whiteSpace=wrap;html=1;" parent="1" vertex="1">
                    <mxGeometry x="373.75" y="740" width="115" height="20" as="geometry"/>
                </mxCell>
                <mxCell id="113" style="edgeStyle=none;html=1;startArrow=classic;startFill=1;endArrow=none;endFill=0;entryX=0.5;entryY=1;entryDx=0;entryDy=0;" parent="1" source="110" target="108" edge="1">
                    <mxGeometry relative="1" as="geometry">
                        <mxPoint x="525" y="730" as="targetPoint"/>
                    </mxGeometry>
                </mxCell>
                <mxCell id="110" value="DefaultImage" style="whiteSpace=wrap;html=1;" parent="1" vertex="1">
                    <mxGeometry x="456" y="700" width="80" height="20" as="geometry"/>
                </mxCell>
                <mxCell id="114" style="edgeStyle=none;html=1;entryX=0.5;entryY=1;entryDx=0;entryDy=0;startArrow=classic;startFill=1;endArrow=none;endFill=0;" parent="1" source="111" target="108" edge="1">
                    <mxGeometry relative="1" as="geometry"/>
                </mxCell>
                <mxCell id="111" value="InfoRow" style="whiteSpace=wrap;html=1;" parent="1" vertex="1">
                    <mxGeometry x="498.5" y="660" width="80" height="20" as="geometry"/>
                </mxCell>
                <mxCell id="122" style="edgeStyle=none;html=1;entryX=0.5;entryY=1;entryDx=0;entryDy=0;startArrow=classic;startFill=1;endArrow=none;endFill=0;" parent="1" source="117" target="100" edge="1">
                    <mxGeometry relative="1" as="geometry"/>
                </mxCell>
                <mxCell id="117" value="MediaCard" style="whiteSpace=wrap;html=1;" parent="1" vertex="1">
                    <mxGeometry x="30" y="620" width="80" height="20" as="geometry"/>
                </mxCell>
                <mxCell id="118" style="edgeStyle=none;html=1;entryX=0.5;entryY=1;entryDx=0;entryDy=0;startArrow=classic;startFill=1;endArrow=none;endFill=0;" parent="1" source="119" target="117" edge="1">
                    <mxGeometry relative="1" as="geometry"/>
                </mxCell>
                <mxCell id="119" value="MediaCardBadge" style="whiteSpace=wrap;html=1;" parent="1" vertex="1">
                    <mxGeometry x="73.75" y="690" width="110" height="20" as="geometry"/>
                </mxCell>
                <mxCell id="120" style="edgeStyle=none;html=1;entryX=0.5;entryY=1;entryDx=0;entryDy=0;startArrow=classic;startFill=1;endArrow=none;endFill=0;" parent="1" source="121" target="117" edge="1">
                    <mxGeometry relative="1" as="geometry"/>
                </mxCell>
                <mxCell id="121" value="DefaultImage" style="whiteSpace=wrap;html=1;" parent="1" vertex="1">
                    <mxGeometry x="10" y="660" width="80" height="20" as="geometry"/>
                </mxCell>
                <mxCell id="125" style="edgeStyle=none;html=1;entryX=0.5;entryY=1;entryDx=0;entryDy=0;startArrow=classic;startFill=1;endArrow=none;endFill=0;" parent="1" source="123" target="100" edge="1">
                    <mxGeometry relative="1" as="geometry"/>
                </mxCell>
                <mxCell id="123" value="CreditsList" style="whiteSpace=wrap;html=1;" parent="1" vertex="1">
                    <mxGeometry x="305" y="620" width="70" height="20" as="geometry"/>
                </mxCell>
                <mxCell id="126" style="edgeStyle=none;html=1;startArrow=classic;startFill=1;endArrow=none;endFill=0;entryX=0.5;entryY=1;entryDx=0;entryDy=0;" parent="1" source="124" target="100" edge="1">
                    <mxGeometry relative="1" as="geometry">
                        <mxPoint x="425" y="680" as="targetPoint"/>
                    </mxGeometry>
                </mxCell>
                <mxCell id="124" value="Rating" style="whiteSpace=wrap;html=1;" parent="1" vertex="1">
                    <mxGeometry x="433" y="590" width="70" height="20" as="geometry"/>
                </mxCell>
                <mxCell id="128" style="edgeStyle=none;html=1;entryX=0.5;entryY=1;entryDx=0;entryDy=0;startArrow=classic;startFill=1;endArrow=none;endFill=0;" parent="1" source="127" target="123" edge="1">
                    <mxGeometry relative="1" as="geometry"/>
                </mxCell>
                <mxCell id="127" value="MediaCardBadge" style="whiteSpace=wrap;html=1;" parent="1" vertex="1">
                    <mxGeometry x="285" y="690" width="110" height="20" as="geometry"/>
                </mxCell>
                <mxCell id="149" value="UserListPage" style="whiteSpace=wrap;html=1;strokeColor=#08F000;" parent="1" vertex="1">
                    <mxGeometry x="507.5" y="780" width="130" height="20" as="geometry"/>
                </mxCell>
                <mxCell id="158" style="edgeStyle=none;html=1;entryX=0.5;entryY=1;entryDx=0;entryDy=0;startArrow=classic;startFill=1;endArrow=none;endFill=0;" parent="1" source="150" target="149" edge="1">
                    <mxGeometry relative="1" as="geometry"/>
                </mxCell>
                <mxCell id="150" value="FollowingList" style="whiteSpace=wrap;html=1;" parent="1" vertex="1">
                    <mxGeometry x="295.5" y="820" width="115" height="20" as="geometry"/>
                </mxCell>
                <mxCell id="159" style="edgeStyle=none;html=1;startArrow=classic;startFill=1;endArrow=none;endFill=0;entryX=0.5;entryY=1;entryDx=0;entryDy=0;" parent="1" source="151" target="149" edge="1">
                    <mxGeometry relative="1" as="geometry">
                        <mxPoint x="542.5" y="960" as="targetPoint"/>
                    </mxGeometry>
                </mxCell>
                <mxCell id="151" value="BookmarkList" style="whiteSpace=wrap;html=1;" parent="1" vertex="1">
                    <mxGeometry x="481" y="820" width="115" height="20" as="geometry"/>
                </mxCell>
                <mxCell id="160" style="edgeStyle=none;html=1;startArrow=classic;startFill=1;endArrow=none;endFill=0;entryX=0.5;entryY=1;entryDx=0;entryDy=0;" parent="1" source="152" target="149" edge="1">
                    <mxGeometry relative="1" as="geometry">
                        <mxPoint x="545" y="960" as="targetPoint"/>
                    </mxGeometry>
                </mxCell>
                <mxCell id="152" value="CompletedList" style="whiteSpace=wrap;html=1;" parent="1" vertex="1">
                    <mxGeometry x="665" y="820" width="115" height="20" as="geometry"/>
                </mxCell>
                <mxCell id="161" style="edgeStyle=none;html=1;entryX=0.5;entryY=1;entryDx=0;entryDy=0;startArrow=classic;startFill=1;endArrow=none;endFill=0;" parent="1" source="153" target="150" edge="1">
                    <mxGeometry relative="1" as="geometry"/>
                </mxCell>
                <mxCell id="153" value="DefaultImage" style="whiteSpace=wrap;html=1;" parent="1" vertex="1">
                    <mxGeometry x="313" y="860" width="80" height="20" as="geometry"/>
                </mxCell>
                <mxCell id="162" style="edgeStyle=none;html=1;entryX=0.5;entryY=1;entryDx=0;entryDy=0;startArrow=classic;startFill=1;endArrow=none;endFill=0;" parent="1" source="154" target="151" edge="1">
                    <mxGeometry relative="1" as="geometry"/>
                </mxCell>
                <mxCell id="154" value="MediaCardBadge" style="whiteSpace=wrap;html=1;" parent="1" vertex="1">
                    <mxGeometry x="433" y="860" width="110" height="20" as="geometry"/>
                </mxCell>
                <mxCell id="163" style="edgeStyle=none;html=1;entryX=0.5;entryY=1;entryDx=0;entryDy=0;startArrow=classic;startFill=1;endArrow=none;endFill=0;" parent="1" source="155" target="151" edge="1">
                    <mxGeometry relative="1" as="geometry"/>
                </mxCell>
                <mxCell id="155" value="DefaultImage" style="whiteSpace=wrap;html=1;" parent="1" vertex="1">
                    <mxGeometry x="537.5" y="900" width="80" height="20" as="geometry"/>
                </mxCell>
                <mxCell id="165" style="edgeStyle=none;html=1;startArrow=classic;startFill=1;endArrow=none;endFill=0;entryX=0.5;entryY=1;entryDx=0;entryDy=0;" parent="1" source="156" target="152" edge="1">
                    <mxGeometry relative="1" as="geometry">
                        <mxPoint x="695" y="1020" as="targetPoint"/>
                    </mxGeometry>
                </mxCell>
                <mxCell id="156" value="MediaCardBadge" style="whiteSpace=wrap;html=1;" parent="1" vertex="1">
                    <mxGeometry x="607.5" y="860" width="110" height="20" as="geometry"/>
                </mxCell>
                <mxCell id="164" style="edgeStyle=none;html=1;entryX=0.5;entryY=1;entryDx=0;entryDy=0;startArrow=classic;startFill=1;endArrow=none;endFill=0;" parent="1" source="157" target="152" edge="1">
                    <mxGeometry relative="1" as="geometry"/>
                </mxCell>
                <mxCell id="157" value="DefaultImage" style="whiteSpace=wrap;html=1;" parent="1" vertex="1">
                    <mxGeometry x="721.25" y="900" width="80" height="20" as="geometry"/>
                </mxCell>
                <mxCell id="174" value="ProfilePage" style="whiteSpace=wrap;html=1;strokeColor=#08F000;" parent="1" vertex="1">
                    <mxGeometry x="660" y="120" width="82.5" height="20" as="geometry"/>
                </mxCell>
                <mxCell id="175" style="edgeStyle=none;html=1;entryX=0.5;entryY=1;entryDx=0;entryDy=0;startArrow=classic;startFill=1;endArrow=none;endFill=0;" parent="1" source="176" target="174" edge="1">
                    <mxGeometry relative="1" as="geometry"/>
                </mxCell>
                <mxCell id="176" value="UpdateProfileForm" style="whiteSpace=wrap;html=1;" parent="1" vertex="1">
                    <mxGeometry x="643.75" y="200" width="115" height="20" as="geometry"/>
                </mxCell>
                <mxCell id="177" style="edgeStyle=none;html=1;startArrow=classic;startFill=1;endArrow=none;endFill=0;entryX=0.5;entryY=1;entryDx=0;entryDy=0;" parent="1" source="178" target="174" edge="1">
                    <mxGeometry relative="1" as="geometry">
                        <mxPoint x="622.5" y="220" as="targetPoint"/>
                    </mxGeometry>
                </mxCell>
                <mxCell id="178" value="ToastNotification" style="whiteSpace=wrap;html=1;" parent="1" vertex="1">
                    <mxGeometry x="712.5" y="160" width="100" height="20" as="geometry"/>
                </mxCell>
            </root>
        </mxGraphModel>
    </diagram>
</mxfile>